<svg width="45" height="45" viewBox="0 0 45 45" fill="none" xmlns="http://www.w3.org/2000/svg">
    <g clip-path="url(#clip0_104_974)">
        <path
            d="M45 11.0774V33.9263C44.924 34.3533 44.869 34.7859 44.7677 35.2064C43.5889 40.1319 40.5818 43.3051 35.6803 44.6457C35.1069 44.8031 34.5114 44.8824 33.9258 44.998H11.0764C10.6603 44.9253 10.242 44.8626 9.82926 44.7767C4.05718 43.5946 0.00989495 38.646 0.00439144 32.7508C-0.00221277 25.9134 -0.00331348 19.0749 0.0131971 12.2375C0.0153985 11.4373 0.0748364 10.6228 0.231136 9.8402C1.37917 4.09137 6.34554 0.0166751 12.2002 0.00676905C19.0674 -0.0042377 25.9347 -0.00313702 32.8031 0.0144738C33.6165 0.0166751 34.452 0.0706082 35.2401 0.256622C40.158 1.41783 43.3148 4.43919 44.6478 9.32839C44.8041 9.90074 44.8844 10.494 44.9989 11.0763L45 11.0774ZM42.3638 22.5002C42.3638 19.1464 42.3693 15.7938 42.3616 12.44C42.3583 11.008 42.1415 9.60796 41.5119 8.30916C39.7111 4.59328 36.7095 2.68581 32.6039 2.65499C25.8687 2.60546 19.1324 2.63518 12.3961 2.65059C11.6828 2.65169 10.9553 2.70562 10.2607 2.85862C5.71263 3.86133 2.66259 7.63555 2.64718 12.3123C2.62516 19.1068 2.63507 25.9012 2.64608 32.6957C2.64828 34.4205 3.02802 36.066 3.92729 37.553C5.85903 40.7505 8.73076 42.3409 12.4434 42.3563C18.8869 42.3828 25.3293 42.3662 31.7729 42.3607C32.4168 42.3607 33.0629 42.3508 33.7024 42.2892C36.4035 42.0327 38.5983 40.8187 40.2923 38.7098C41.7419 36.9047 42.3627 34.8101 42.3638 32.5152C42.3649 29.1769 42.3638 25.8374 42.3638 22.4991V22.5002Z"
            fill="white" />
        <path
            d="M22.5269 10.1989C29.3139 10.2099 34.8207 15.7441 34.8042 22.5385C34.7876 29.3242 29.2489 34.8254 22.4532 34.8045C15.6685 34.7835 10.1726 29.2394 10.198 22.4428C10.2233 15.6769 15.751 10.1879 22.5269 10.1989ZM32.1625 22.4362C32.0381 16.902 27.6463 12.7998 22.4246 12.8559C16.9442 12.9153 12.8187 17.2993 12.8551 22.5451C12.8936 28.0265 17.2733 32.1893 22.5555 32.1463C28.0657 32.1012 32.1383 27.6886 32.1625 22.4362Z"
            fill="white" />
        <path
            d="M35.1058 13.098C33.1004 13.1013 31.4713 11.4822 31.4669 9.47901C31.4625 7.46697 33.1323 5.78954 35.1191 5.81486C37.1003 5.83907 38.7558 7.50549 38.7503 9.4691C38.7448 11.4547 37.0992 13.0936 35.107 13.098H35.1058ZM36.0635 9.4768C36.069 8.92867 35.654 8.50271 35.1092 8.4983C34.5764 8.4939 34.1185 8.93307 34.1108 9.45589C34.1031 9.96 34.5742 10.441 35.086 10.4509C35.6045 10.4619 36.058 10.0106 36.0635 9.4768Z"
            fill="white" />
    </g>
    <defs>
        <clipPath id="clip0_104_974">
            <rect width="45" height="45" fill="white" />
        </clipPath>
    </defs>
</svg>