<svg width="435" height="84" viewBox="0 0 435 84" fill="none" xmlns="http://www.w3.org/2000/svg">
<path fill-rule="evenodd" clip-rule="evenodd" d="M435 62.998L433.086 68.0376H412.822L407.127 83.3153H402.1L407.796 68.0376H4.34424C4.34424 68.0376 4.19193 67.2562 3.12573 65.7794C1.68207 63.7729 0.119202 63.0245 0.00662231 62.998H409.676L415.371 47.7402H420.398L414.703 62.998H435ZM0.00662231 62.998H0C0 62.998 0 62.998 0.00662231 62.998Z" fill="#E22126"/>
<path fill-rule="evenodd" clip-rule="evenodd" d="M399.067 34.542C396.326 42.0517 393.591 49.568 390.882 57.0711H377.77C379.154 53.2302 380.551 49.3826 381.949 45.5483C383.346 41.7007 384.743 37.8664 386.154 34.0255C383.882 36.7803 381.585 39.5286 379.346 42.2835C377.128 45.0251 374.863 47.7866 372.624 50.5349H361.506C361.228 47.7866 360.982 45.0317 360.731 42.2835C360.479 39.5352 360.234 36.7803 359.983 34.0255C358.572 37.8664 357.175 41.7007 355.777 45.5483C354.38 49.3826 352.983 53.2302 351.599 57.0711H338.486C339.844 53.2765 341.228 49.4819 342.606 45.694C343.99 41.8994 345.374 38.0982 346.758 34.3036C347.672 31.8401 348.572 29.37 349.466 26.8998C350.393 24.3569 351.234 21.4166 351.234 18.6882C351.234 15.3638 350.042 13.7347 347.725 12.0063H367.976C368.419 16.7942 368.863 21.5821 369.307 26.3701C369.75 31.1514 370.194 35.9459 370.631 40.7272C374.558 35.9459 378.459 31.1514 382.359 26.3701C386.26 21.5887 390.213 16.7942 394.14 12.0063H407.253C404.544 19.5226 401.802 27.0323 399.067 34.542ZM338.003 16.569H319.037C318.083 19.1848 317.123 21.8007 316.169 24.4165C315.216 27.0323 314.289 29.6415 313.335 32.2573H332.659C332.122 33.7804 331.553 35.3036 331.016 36.8201H311.659C310.706 39.4359 309.759 42.0583 308.825 44.6675C307.885 47.2833 306.911 49.8925 305.958 52.5083H328.719C328.182 54.0315 327.613 55.548 327.076 57.0711H291.236C292.607 53.2765 293.971 49.4753 295.355 45.6874C296.746 41.8861 298.13 38.0982 299.508 34.3036C300.402 31.8401 301.315 29.3633 302.196 26.8932C303.11 24.3436 303.944 21.4099 303.958 18.6882C303.971 15.3638 302.766 13.7281 300.435 12.0063H343.473C342.937 13.5294 342.367 15.0459 341.831 16.569H338.01H338.003ZM295.223 15.8075C294.971 16.5425 294.68 17.2776 294.422 18.0193H277.859C278.111 17.2842 278.402 16.5492 278.66 15.8075C279.535 13.4036 280.396 10.993 281.276 8.58914C281.846 7.03952 281.025 5.76804 279.462 5.76804H265.727C265.363 6.70841 265.038 7.64877 264.674 8.58914C262.277 15.2379 259.827 21.8868 257.409 28.5356C254.999 35.1777 252.575 41.8332 250.178 48.4753C249.595 50.025 250.357 51.2965 251.959 51.2965H262.86C264.422 51.2965 266.217 50.0316 266.78 48.4753C267.813 45.641 268.853 42.7868 269.866 39.9524C270.886 37.1181 271.939 34.2639 272.952 31.4229H263.979C264.707 29.5024 265.396 27.5687 266.085 25.6416H291.62C290.243 29.4362 288.859 33.2374 287.481 37.0254C286.104 40.8133 284.707 44.6079 283.342 48.4025C281.621 53.1706 276.296 57.0711 271.502 57.0711H239.138C234.344 57.0711 231.854 53.1639 233.582 48.4025C234.801 45.0384 236.039 41.6742 237.251 38.3233C238.47 34.9592 239.721 31.6017 240.92 28.2376C242.085 25.1118 243.224 21.9927 244.37 18.8537C245.549 15.6353 246.622 11.9135 246.622 8.4567C246.622 4.2449 245.099 2.17874 242.152 0H292.283C297.077 0 299.56 3.90054 297.839 8.66861C296.978 11.0593 296.097 13.4433 295.223 15.8207V15.8075ZM221.218 29.9726C219.987 33.3434 216.49 36.1711 213.073 36.7207C213.073 39.3299 213.047 41.9457 213.047 44.5483C213.047 47.1509 213.073 49.7601 213.073 52.3693C213.073 53.9388 213.047 55.5082 213.073 57.0711H199.14C199.113 53.6937 199.1 50.3163 199.113 46.9456C199.126 43.5682 199.14 40.1908 199.14 36.8201H192.537C191.312 40.1975 190.08 43.5682 188.842 46.9456C187.61 50.3163 186.398 53.7004 185.173 57.0711H172.081C173.438 53.2765 174.823 49.4819 176.207 45.6874C177.591 41.8928 178.975 38.0982 180.365 34.3036C181.259 31.8401 182.173 29.37 183.081 26.8932C184.014 24.3503 184.855 21.4099 184.849 18.6816C184.836 15.3571 183.657 13.7281 181.346 12.0063H220.921C224.695 12.0063 226.662 15.0856 225.291 18.8471C223.94 22.5622 222.569 26.2641 221.218 29.9726ZM210.815 16.5624H199.921C198.968 19.1782 198.021 21.794 197.067 24.4099C196.113 27.0257 195.166 29.6349 194.213 32.2507H205.106C206.332 32.2507 207.669 31.2573 208.12 30.0256C209.49 26.284 210.821 22.5291 212.192 18.7875C212.643 17.5558 212.027 16.5624 210.808 16.5624H210.815ZM172.531 16.5624H153.565C152.611 19.1782 151.651 21.794 150.697 24.4099C149.744 27.0257 148.817 29.6349 147.863 32.2507H167.187C166.651 33.7738 166.081 35.2969 165.545 36.8134H146.188C145.234 39.4293 144.287 42.0517 143.353 44.6609C142.413 47.2767 141.439 49.8859 140.486 52.5017H163.247C162.71 54.0248 162.141 55.5414 161.604 57.0645H125.764C127.135 53.2699 128.499 49.4687 129.884 45.6807C131.274 41.8795 132.658 38.0916 134.036 34.297C134.93 31.8335 135.844 29.3567 136.724 26.8866C137.632 24.337 138.473 21.4033 138.486 18.6816C138.499 15.3571 137.294 13.7214 134.963 11.9996H178.001C177.465 13.5228 176.895 15.0393 176.359 16.5624H172.538H172.531ZM114.712 57.0645H101.6C102.984 53.2235 104.381 49.376 105.778 45.5417C107.176 41.6941 108.573 37.8598 109.983 34.0188C107.712 36.7737 105.414 39.522 103.176 42.2769C100.957 45.0185 98.6924 47.78 96.4541 50.5283H85.3352C85.0571 47.78 84.812 45.0251 84.5604 42.2769C84.3088 39.5286 84.0637 36.7737 83.8121 34.0188C82.4015 37.8598 81.0042 41.6941 79.6069 45.5417C78.2096 49.376 76.8123 53.2235 75.4282 57.0645H62.316C63.6736 53.2699 65.0577 49.4753 66.4351 45.6874C67.8192 41.8928 69.2032 38.0916 70.5873 34.297C71.5012 31.8335 72.4018 29.3633 73.2958 26.8932C74.223 24.3503 75.064 21.4099 75.064 18.6816C75.064 15.3571 73.872 13.7281 71.5542 11.9996H91.8052C92.2489 16.7876 92.6926 21.5755 93.1363 26.3634C93.58 31.1447 94.0237 35.9393 94.4608 40.7206C98.3878 35.9393 102.288 31.1447 106.189 26.3634C110.089 21.5821 114.043 16.7876 117.97 11.9996H131.082C128.374 19.516 125.632 27.0257 122.897 34.5354C120.155 42.0451 117.42 49.5614 114.712 57.0645ZM67.3887 5.77466H43.363C42.1511 9.09244 40.9392 12.4036 39.734 15.7148C38.5221 19.0259 37.3499 22.3371 36.138 25.6482H60.6141C59.932 27.5753 59.2168 29.509 58.5347 31.4295H34.0189C32.807 34.7473 31.615 38.0651 30.423 41.3696C29.231 44.6874 27.9992 47.9919 26.7939 51.3031H55.6209C54.9388 53.2302 54.2236 55.1573 53.5415 57.0777H8.14551C9.88718 52.2699 11.609 47.4555 13.3639 42.661C15.1254 37.8465 16.8803 33.0454 18.622 28.2442C19.7544 25.1251 20.9133 21.9861 22.0259 18.8604C23.1782 15.6287 24.2377 11.9202 24.2576 8.46332C24.2775 4.25153 22.7477 2.18536 19.7942 0.00662231H74.3091C73.627 1.93372 72.9117 3.86081 72.2296 5.78128H67.3887V5.77466Z" fill="white"/>
</svg>
