<svg width="52" height="53" viewBox="0 0 52 53" fill="none" xmlns="http://www.w3.org/2000/svg">
<path fill-rule="evenodd" clip-rule="evenodd" d="M47.4967 21.931C45.4059 13.1324 37.9312 7.10665 28.9408 7C27.7386 7 26.4841 7.15998 25.3341 7.37328C12.7371 9.9862 6.25556 24.1707 12.3712 35.6355C12.528 35.9555 12.528 36.2221 12.4757 36.5421C11.6394 39.5283 10.8553 42.5678 10.019 45.6073C9.94931 45.9273 10.0713 46.0517 10.3849 45.9806C13.4688 45.1807 16.5005 44.3275 19.5844 43.5277C19.8458 43.4743 20.0549 43.5277 20.2639 43.581C24.1842 45.6607 28.3658 46.2472 32.7565 45.394C43.1582 43.3677 49.9534 32.5427 47.4967 22.0377V21.931ZM31.6588 42.1945C30.7702 42.3545 29.9339 42.4612 29.4635 42.4078C26.1182 42.4078 23.4001 41.608 20.8912 40.1149C20.5253 39.9549 20.2639 39.8482 19.8981 39.9549C18.1731 40.4348 16.5005 40.8614 14.8279 41.3413C14.462 41.448 14.4097 41.3413 14.5142 41.0214C14.9324 39.3683 15.4028 37.7686 15.8733 36.1155C15.9778 35.6889 15.9255 35.3156 15.6642 34.9423C12.2144 29.2365 12.3712 22.1976 16.2391 16.9718C20.2639 11.5326 25.7523 9.23965 32.2861 10.6794C38.7676 12.0659 42.8446 16.3319 44.3605 22.8909C46.4513 31.8495 40.4925 40.7548 31.6066 42.2479L31.6588 42.1945Z" fill="#FCFCFC"/>
<path fill-rule="evenodd" clip-rule="evenodd" d="M34.1492 35.8893C33.4434 35.8893 32.792 35.7787 32.0862 35.6127C27.526 34.2295 24.1601 31.4078 21.3914 27.5902C20.3599 26.1517 19.437 24.6578 19.1112 22.8873C18.7312 20.7849 19.3284 18.9591 20.8485 17.5206C21.3914 17.0226 22.9114 16.8566 23.5086 17.1333C23.7258 17.2439 23.8886 17.4652 23.9429 17.6312C24.4858 19.0144 25.083 20.3976 25.6802 21.7808C25.7887 22.0574 25.7345 22.3341 25.6259 22.6107C25.3001 23.2193 24.8658 23.7173 24.3772 24.2705C24.0515 24.6578 24.0515 24.9898 24.2687 25.3771C25.843 28.1435 28.0689 30.0799 31.0004 31.2971C31.4348 31.4631 31.7605 31.4078 32.0319 31.0758C32.5205 30.4119 33.0091 29.8586 33.4977 29.1947C33.8235 28.7521 34.1492 28.6967 34.6378 28.9181C35.5607 29.3607 36.5379 29.8033 37.4608 30.2459C37.6779 30.3566 37.8951 30.4672 38.1123 30.5779C39.0352 31.0758 39.0352 31.0758 38.9809 32.1824C38.818 34.2848 37.2436 35.3361 35.3978 35.8893C34.9635 36 34.5292 36 34.0949 36L34.1492 35.8893Z" fill="#FDFDFD"/>
</svg>
