<svg width="39" height="39" viewBox="0 0 39 39" fill="none" xmlns="http://www.w3.org/2000/svg">
<g clip-path="url(#clip0_104_682)">
<path d="M0 10.4342C0.101825 9.90271 0.17588 9.36398 0.312675 8.84068C0.514268 8.07063 0.87117 7.35507 1.42041 6.78448C2.61557 5.5415 3.80867 4.28825 5.08816 3.13472C6.4304 1.92361 8.41136 1.95343 9.79783 3.1121C10.3903 3.60764 10.9405 4.15665 11.4857 4.70566C12.7364 5.96817 14.0148 7.206 15.2007 8.52711C16.4339 9.90168 16.3949 11.9013 15.1555 13.281C14.2236 14.3184 13.2249 15.2961 12.1995 16.3582C12.508 16.902 12.8063 17.5158 13.1827 18.0761C15.2912 21.2098 17.9212 23.8253 21.085 25.8928C21.518 26.1755 21.9891 26.4048 22.4581 26.6279C22.5465 26.67 22.7409 26.6011 22.8263 26.5199C23.7139 25.6666 24.5583 24.766 25.4737 23.9455C27.1132 22.4754 29.0356 22.462 30.6236 23.9774C32.367 25.6419 34.061 27.3619 35.7087 29.121C36.9573 30.4534 36.9388 32.486 35.7642 33.8904C35.3497 34.3859 34.8889 34.8424 34.4354 35.303C33.6712 36.0802 32.9388 36.8976 32.115 37.608C30.7172 38.8129 29.0356 39.1224 27.2356 38.9558C24.0081 38.6567 21.1343 37.3489 18.3491 35.8129C14.7873 33.8492 11.6245 31.3582 8.86392 28.3767C5.58906 24.84 2.8799 20.9291 1.16842 16.3869C0.614036 14.9157 0.174851 13.4106 0.0647977 11.8283C0.0545124 11.7194 0.0215992 11.6104 0 11.5004C0 11.1457 0 10.79 0 10.4342ZM2.27409 10.8424C2.26689 12.5213 2.67522 13.9288 3.172 15.3157C4.51013 19.0518 6.632 22.3253 9.16528 25.3438C12.47 29.2804 16.4113 32.4243 21.0294 34.7005C23.1297 35.7358 25.2927 36.584 27.6604 36.7577C28.8288 36.8441 29.9355 36.6323 30.8046 35.8037C31.8692 34.7889 32.8936 33.73 33.8944 32.6515C34.603 31.8887 34.5608 31.1299 33.8481 30.3547C33.522 30 33.1744 29.6649 32.8329 29.3235C31.612 28.1032 30.3963 26.8777 29.1672 25.6656C28.4225 24.9305 27.6594 24.9294 26.888 25.6347C26.7851 25.7293 26.6864 25.828 26.5876 25.9267C25.7165 26.7965 24.8494 27.6714 23.9721 28.535C23.355 29.1426 22.636 29.2588 21.8831 28.8784C21.3627 28.6162 20.8412 28.353 20.3403 28.0559C17.9839 26.6597 15.9454 24.878 14.1033 22.864C12.5142 21.1265 11.0722 19.2852 10.1105 17.1097C9.6744 16.1227 9.78857 15.4863 10.5538 14.7461C11.4116 13.9164 12.2643 13.0826 13.1066 12.2375C14.1249 11.2177 14.1156 10.5134 13.0943 9.48016C13.085 9.47091 13.0768 9.46268 13.0675 9.45343C11.6502 8.03465 10.2339 6.61381 8.81558 5.19709C7.86315 4.2461 7.05781 4.24918 6.0951 5.20737C5.28564 6.0134 4.4947 6.83897 3.66673 7.62546C2.68756 8.55692 2.20724 9.67447 2.27306 10.8403L2.27409 10.8424Z" fill="white"/>
<path d="M21.9449 0C22.7235 0.203564 23.5093 0.385538 24.2807 0.614805C27.861 1.67786 30.9147 3.59733 33.4891 6.29609C35.5956 8.50445 37.1538 11.049 38.1289 13.9339C38.4919 15.0082 38.7192 16.1299 38.9774 17.2371C39.1008 17.7656 38.7234 18.2838 38.171 18.4452C37.665 18.5932 37.0684 18.3362 36.8823 17.8468C36.7527 17.5065 36.6838 17.1426 36.6005 16.7858C35.1461 10.5093 31.4238 6.08533 25.5777 3.46367C24.3444 2.91055 22.9816 2.63605 21.6651 2.28444C20.8268 2.06032 20.4329 1.67169 20.4977 0.961275C20.5409 0.471899 20.8896 0.228239 21.2588 0C21.4872 0 21.7155 0 21.9449 0Z" fill="white"/>
<path d="M21.3483 6.97466C22.3449 7.29132 23.3817 7.51853 24.3321 7.94108C28.1572 9.64053 30.6267 12.5336 31.7139 16.5854C31.8085 16.938 31.8908 17.3009 31.9165 17.6638C31.9566 18.2211 31.5668 18.7032 31.0556 18.804C30.4827 18.9161 29.9407 18.622 29.7658 18.0586C29.5714 17.4315 29.4717 16.7704 29.2371 16.1607C27.7869 12.402 25.0788 10.1093 21.1271 9.28995C20.4607 9.15218 20.1089 8.67514 20.183 8.03566C20.2488 7.46815 20.7168 7.07233 21.3154 7.07953C21.3267 7.04457 21.337 7.00962 21.3483 6.97363V6.97466Z" fill="white"/>
</g>
<defs>
<clipPath id="clip0_104_682">
<rect width="39" height="39" fill="white"/>
</clipPath>
</defs>
</svg>
