<svg width="43" height="39" viewBox="0 0 43 39" fill="none" xmlns="http://www.w3.org/2000/svg">
<g clip-path="url(#clip0_104_978)">
<path d="M20.9008 32.4851C19.8605 33.7741 18.8255 35.0555 17.7916 36.3379C17.1875 37.0876 16.5792 37.834 15.9877 38.5945C15.7522 38.8974 15.4385 39.1066 15.1185 38.9443C14.8598 38.8124 14.5725 38.4932 14.5208 38.2142C14.2504 36.7356 14.0466 35.244 13.828 33.7556C13.5481 31.8532 13.2862 29.9485 12.9862 28.0505C12.9556 27.8543 12.7476 27.6353 12.5659 27.5242C8.98248 25.3384 5.39061 23.168 1.79979 20.9942C1.39319 20.748 0.953839 20.5442 0.587364 20.2457C0.333895 20.0386 0.0635279 19.7227 0.00966566 19.4176C-0.0621506 19.0046 0.288482 18.7638 0.657068 18.5982C3.9152 17.137 7.17017 15.6683 10.4251 14.1984C20.791 9.51639 31.1558 4.83438 41.5216 0.153466C41.6452 0.0978969 41.7708 -0.00343574 41.8933 -0.000166945C42.1922 0.00854984 42.5788 -0.0361237 42.7625 0.133854C42.9474 0.303831 43.0466 0.73967 42.9801 1.00335C42.5566 2.68242 42.0782 4.34624 41.6166 6.01442C38.6648 16.6772 35.7129 27.34 32.7589 38.0028C32.704 38.2022 32.6544 38.4125 32.5541 38.5869C32.2985 39.0314 31.8665 39.0892 31.3195 38.7601C29.2516 37.5169 27.1868 36.2693 25.12 35.0239C23.7259 34.1838 22.3297 33.3448 20.9019 32.4851H20.9008ZM13.7878 26.33C13.8871 26.2461 13.9938 26.1611 14.0952 26.0707C17.4748 23.0492 20.8543 20.0267 24.2339 17.0041C28.3021 13.3659 32.3692 9.72668 36.4374 6.0896C36.8799 5.69408 37.2654 5.6701 37.6108 5.99807C37.9498 6.3195 37.935 6.78585 37.5706 7.25111C37.5178 7.31867 37.464 7.38622 37.409 7.4516C32.102 13.8127 26.7961 20.1727 21.4891 26.5337C20.698 27.4817 19.9102 28.4318 19.0674 29.4451C23.201 31.9578 27.2861 34.4399 31.4082 36.9449C34.6262 25.3232 37.8209 13.7887 41.0432 2.15179C28.1532 7.97025 15.3815 13.7353 2.5264 19.5374C6.32527 21.8288 10.0301 24.0636 13.7878 26.33ZM15.5516 34.3058C15.5822 34.3015 15.6118 34.296 15.6424 34.2917C16.1166 32.7216 16.5866 31.1493 17.0692 29.5813C17.1336 29.3732 17.2245 29.1553 17.3607 28.9919C21.0846 24.5169 24.8169 20.0495 28.5461 15.5789C28.6464 15.4591 28.733 15.325 28.8249 15.1976C28.6971 15.1921 28.6263 15.2324 28.5672 15.2858C23.991 19.3751 19.4148 23.4632 14.8492 27.5645C14.7162 27.6844 14.6222 27.96 14.6475 28.1431C14.9337 30.1991 15.2463 32.2509 15.5526 34.3048L15.5516 34.3058ZM17.3364 34.1784C17.3681 34.1958 17.3998 34.2132 17.4325 34.2318C18.1264 33.3721 18.8203 32.5124 19.549 31.6091C19.135 31.3476 18.759 31.109 18.3429 30.8464C17.9912 32.0111 17.6638 33.0953 17.3375 34.1784H17.3364Z" fill="white"/>
</g>
<defs>
<clipPath id="clip0_104_978">
<rect width="43" height="39" fill="white"/>
</clipPath>
</defs>
</svg>
